<?xml version="1.0" standalone="no"?>
<!DOCTYPE svg PUBLIC "-//W3C//DTD SVG 20010904//EN"
 "http://www.w3.org/TR/2001/REC-SVG-20010904/DTD/svg10.dtd">
<svg version="1.0" xmlns="http://www.w3.org/2000/svg"
 width="128" height="20" viewBox="0 0 1880.000000 338.000000"
 preserveAspectRatio="xMidYMid meet">

<g transform="translate(0.000000,338.000000) scale(0.100000,-0.100000)"
fill="#000000" stroke="none">
<path d="M7995 3283 c-249 -21 -486 -97 -790 -252 -237 -120 -459 -275 -748
-524 -147 -125 -398 -366 -429 -411 -19 -28 -20 -29 -2 -15 10 9 71 58 134
110 611 503 802 630 1160 772 233 93 384 129 675 163 218 25 453 6 554 -45
137 -71 148 -254 28 -461 -24 -41 -78 -133 -120 -204 -155 -263 -187 -409 -96
-446 45 -19 165 -8 219 20 84 42 200 148 280 255 8 11 -11 -3 -42 -31 -80 -72
-164 -126 -250 -162 -104 -42 -142 -48 -167 -23 -17 17 -18 25 -9 58 18 66 73
176 130 260 76 111 163 266 189 338 17 46 22 84 23 165 1 94 -2 111 -26 162
-89 191 -375 300 -713 271z"/>
<path d="M3060 2975 c-74 -10 -125 -25 -265 -78 -17 -7 -43 -20 -58 -30 -14
-9 -29 -17 -32 -17 -7 0 -105 -68 -125 -87 -8 -8 -29 -26 -45 -41 -71 -62
-136 -161 -190 -286 -59 -134 -75 -347 -40 -506 19 -88 82 -237 110 -260 8 -7
15 -16 15 -21 0 -24 211 -199 241 -199 6 0 23 -8 37 -18 15 -10 47 -26 72 -36
138 -55 204 -79 285 -102 28 -7 82 -23 120 -35 39 -11 81 -23 95 -26 38 -8
228 -77 280 -102 112 -54 206 -141 248 -230 24 -51 26 -67 26 -176 0 -94 -4
-132 -20 -175 -109 -301 -473 -431 -864 -308 -58 18 -190 80 -190 89 0 5 -5 9
-10 9 -41 0 -220 177 -288 285 -27 44 -99 202 -105 230 -12 63 -25 85 -52 85
l-25 0 0 -420 0 -420 518 0 c693 1 800 13 1042 116 35 15 71 33 78 41 7 7 18
13 23 13 13 0 72 41 82 58 4 6 12 12 17 12 13 0 130 123 130 137 0 7 4 13 8
13 16 0 94 172 109 239 38 176 40 292 7 445 -18 83 -51 181 -73 216 -9 14 -22
34 -29 45 -6 11 -15 27 -19 35 -14 31 -101 115 -178 172 -74 56 -228 138 -258
138 -7 0 -22 7 -33 15 -12 8 -39 19 -60 24 -22 6 -82 24 -134 41 -100 32 -211
65 -245 74 -11 3 -51 17 -90 31 -38 15 -82 30 -96 35 -23 7 -62 27 -139 71
-51 29 -135 127 -157 183 -32 79 -32 220 -1 303 45 117 140 229 234 273 128
60 144 63 279 64 133 0 194 -13 305 -63 33 -15 109 -60 120 -71 3 -3 24 -18
48 -34 23 -16 67 -56 97 -90 30 -34 61 -68 68 -76 8 -8 17 -22 20 -30 4 -8 16
-28 27 -45 29 -44 60 -112 85 -185 17 -51 26 -66 43 -68 l22 -3 0 380 0 381
-492 -1 c-319 -1 -523 -6 -578 -14z"/>
<path d="M9731 2805 c-31 -135 -69 -245 -83 -245 -5 0 -8 -5 -8 -11 0 -12 -44
-75 -75 -105 -34 -34 -258 -144 -294 -144 -22 0 -60 -26 -40 -28 171 -10 308
-37 325 -63 3 -5 10 -7 15 -4 5 4 9 2 9 -3 0 -5 18 -28 40 -52 22 -24 40 -49
40 -57 0 -7 3 -13 8 -13 9 0 27 -50 53 -150 38 -141 37 -138 38 -110 1 14 8
47 16 74 8 27 15 64 15 83 0 19 9 51 20 73 11 22 20 46 20 55 0 8 4 15 8 15 4
0 14 15 20 34 7 19 19 37 27 40 8 3 15 12 15 20 0 7 12 22 28 32 15 9 33 26
40 36 7 10 20 18 28 18 8 0 14 4 14 9 0 5 21 17 48 27 26 9 51 21 57 26 5 4
19 8 31 8 13 0 29 6 37 14 8 8 31 18 51 21 36 7 60 25 34 26 -32 1 -97 8 -138
14 -25 5 -54 7 -65 7 -10 -1 -25 4 -32 9 -6 6 -16 8 -21 5 -6 -3 -15 1 -22 9
-7 8 -21 15 -31 15 -11 0 -19 4 -19 10 0 5 -11 12 -25 16 -14 3 -25 12 -25 20
0 8 -5 14 -10 14 -6 0 -15 11 -20 25 -5 14 -14 25 -19 25 -5 0 -12 16 -15 35
-4 19 -11 35 -15 35 -5 0 -16 37 -25 83 -34 169 -29 164 -55 52z"/>
<path d="M5140 2353 c-19 -89 -60 -194 -115 -292 -37 -67 -185 -206 -260 -247
-11 -6 -29 -15 -40 -21 -62 -34 -226 -83 -274 -83 -59 0 -71 -8 -71 -46 l0
-34 129 0 130 0 3 -637 3 -638 27 -45 c70 -118 160 -170 338 -196 171 -24 421
-9 495 30 17 9 34 16 38 16 13 0 67 43 67 54 0 5 -7 17 -15 26 -14 16 -19 15
-72 -11 -82 -41 -132 -46 -187 -20 -59 29 -90 79 -104 168 -8 49 -12 258 -12
662 l0 591 195 0 195 0 0 40 0 40 -195 0 -195 0 0 350 0 350 -34 0 c-34 0 -35
-1 -46 -57z"/>
<path d="M6525 1735 c-44 -7 -107 -18 -140 -24 -135 -24 -295 -98 -384 -178
-34 -30 -61 -61 -61 -68 0 -7 -4 -15 -10 -17 -5 -1 -19 -29 -30 -60 -55 -158
15 -336 140 -353 196 -27 324 120 250 287 -18 42 -94 128 -112 128 -5 0 -18 9
-30 20 -12 11 -30 20 -39 20 -28 0 -32 18 -7 31 13 7 25 15 28 18 6 9 104 54
150 71 19 6 80 19 135 27 153 24 254 3 322 -65 13 -13 23 -27 23 -33 0 -5 6
-20 14 -32 23 -38 41 -168 41 -302 l0 -130 -95 -17 c-52 -9 -113 -17 -135 -17
-22 -1 -62 -8 -89 -16 -27 -8 -61 -15 -75 -15 -52 0 -256 -68 -356 -119 -123
-63 -188 -117 -237 -196 -95 -153 -73 -338 53 -464 76 -75 249 -131 409 -131
75 0 217 24 263 44 18 7 52 22 77 32 25 10 65 32 89 49 94 65 111 75 111 64 0
-21 50 -79 88 -103 85 -53 149 -66 327 -66 140 0 174 3 227 21 130 42 156 61
124 88 -11 9 -26 7 -65 -9 -46 -18 -55 -19 -79 -6 -49 25 -52 59 -52 601 0
519 -3 568 -47 656 -25 51 -86 128 -100 129 -7 0 -13 4 -13 9 0 22 -150 90
-250 112 -113 26 -355 34 -465 14z m295 -1020 c0 -273 -1 -298 -19 -331 -55
-102 -188 -158 -292 -122 -67 23 -104 74 -125 173 -33 151 4 318 91 409 39 42
100 86 117 86 8 0 19 5 25 11 11 11 166 67 191 68 9 1 12 -64 12 -294z"/>
<path d="M8750 1728 c-111 -42 -197 -124 -258 -248 l-17 -35 -3 143 -3 142
-31 0 c-17 0 -60 -5 -97 -10 -148 -24 -322 -52 -431 -70 -63 -11 -141 -22
-172 -25 -52 -6 -58 -9 -58 -30 0 -23 17 -35 48 -35 22 0 90 -36 119 -62 14
-13 25 -41 32 -82 15 -87 15 -1007 0 -1078 -12 -52 -44 -106 -65 -107 -5 -1
-29 -10 -52 -21 -22 -11 -50 -20 -62 -20 -15 0 -20 -6 -20 -25 l0 -25 520 0
520 0 0 25 c0 20 -5 25 -27 26 -37 0 -132 38 -166 66 -54 43 -57 69 -57 507 0
296 4 420 14 472 15 81 63 214 77 214 5 0 9 7 9 16 0 26 114 164 135 164 5 0
17 8 28 18 32 28 113 42 177 29 48 -9 80 -25 80 -40 0 -3 -11 -8 -25 -11 -14
-4 -25 -11 -25 -16 0 -6 -6 -10 -13 -10 -7 0 -30 -17 -50 -37 -144 -139 -117
-339 52 -387 73 -20 110 -20 163 0 97 38 138 108 138 239 0 157 -75 258 -232
311 -88 30 -173 31 -248 2z"/>
<path d="M13070 1744 c-14 -2 -65 -11 -115 -20 -49 -9 -119 -25 -155 -36 -65
-21 -221 -90 -243 -108 -194 -156 -232 -206 -304 -405 -23 -65 -25 -83 -25
-245 0 -180 10 -242 58 -347 8 -17 14 -34 14 -37 0 -4 5 -12 11 -19 5 -7 19
-25 29 -42 11 -16 25 -39 32 -49 23 -34 122 -126 168 -156 25 -16 50 -34 57
-40 7 -5 19 -10 27 -10 8 0 17 -4 20 -9 7 -10 108 -49 201 -76 79 -23 258 -45
370 -45 115 0 304 23 380 45 111 33 265 101 265 118 0 4 5 7 11 7 18 0 121 85
164 135 45 53 92 131 129 219 43 99 58 331 32 476 -13 69 -52 188 -66 200 -3
3 -16 25 -29 50 -25 49 -25 49 -104 128 -76 76 -83 82 -94 82 -6 0 -16 7 -23
16 -34 40 -247 120 -395 149 -85 16 -359 29 -415 19z m273 -99 c52 -24 83 -52
123 -110 26 -38 39 -75 71 -200 25 -97 26 -110 26 -410 1 -289 -1 -316 -22
-405 -21 -88 -28 -110 -60 -180 -22 -49 -73 -110 -91 -110 -6 0 -10 -4 -10 -8
0 -13 -37 -28 -104 -43 -47 -10 -69 -10 -119 0 -118 24 -189 99 -240 252 -90
271 -69 913 36 1072 9 14 17 30 17 34 0 18 79 90 120 110 67 33 183 32 253 -2z"/>
<path d="M15650 1744 c-207 -42 -363 -127 -459 -251 l-36 -46 -3 141 -3 142
-29 0 c-32 0 -109 -11 -290 -40 -316 -52 -369 -60 -412 -66 -43 -5 -48 -8 -48
-30 0 -14 6 -26 13 -28 98 -28 140 -54 166 -103 8 -15 11 -182 11 -587 l0
-566 -22 -35 c-22 -34 -114 -85 -152 -85 -10 0 -16 -9 -16 -25 l0 -25 490 0
490 0 0 25 c0 18 -5 25 -20 25 -11 0 -47 13 -79 30 -47 23 -63 38 -80 73 -20
42 -21 56 -21 505 l0 462 24 64 c40 106 85 161 175 212 40 23 58 27 137 28 81
1 94 -2 127 -24 48 -33 81 -97 101 -198 13 -69 16 -158 16 -540 0 -430 -2
-459 -20 -497 -10 -22 -25 -47 -32 -55 -17 -20 -102 -60 -128 -60 -15 0 -20
-7 -20 -25 l0 -25 495 0 495 0 0 25 c0 18 -5 25 -20 25 -37 0 -125 43 -150 74
l-25 30 -7 516 c-3 283 -11 538 -16 565 -17 86 -61 165 -129 233 -35 34 -68
62 -73 62 -6 0 -23 8 -37 17 -48 32 -153 54 -273 58 -63 2 -126 1 -140 -1z"/>
<path d="M9960 1718 c-228 -37 -309 -51 -410 -68 -63 -11 -137 -23 -163 -26
-45 -5 -48 -7 -45 -32 2 -20 9 -28 28 -30 45 -5 118 -46 141 -81 l24 -35 0
-566 0 -566 -25 -38 c-26 -39 -108 -86 -149 -86 -16 0 -21 -6 -21 -25 l0 -25
495 0 495 0 0 25 c0 20 -5 25 -25 25 -31 0 -113 41 -138 68 -46 50 -46 59 -47
785 l0 687 -52 -1 c-29 -1 -78 -6 -108 -11z"/>
<path d="M10470 1479 l0 -230 27 3 c19 2 29 10 31 23 6 30 31 87 65 147 24 44
111 128 156 151 98 51 140 57 412 57 244 0 252 -1 236 -18 -10 -10 -17 -22
-17 -26 0 -6 -54 -80 -70 -96 -10 -10 -31 -45 -36 -62 -4 -10 -9 -18 -13 -18
-4 0 -15 -15 -26 -32 -10 -18 -21 -35 -24 -38 -13 -11 -91 -131 -91 -140 0 -6
-4 -10 -9 -10 -9 0 -48 -58 -63 -92 -4 -10 -12 -18 -17 -18 -5 0 -12 -8 -15
-18 -4 -10 -14 -27 -24 -38 -18 -21 -27 -34 -70 -103 -15 -24 -32 -48 -37 -55
-6 -6 -27 -36 -47 -66 -20 -30 -55 -80 -78 -110 -22 -30 -43 -63 -46 -72 -4
-10 -10 -18 -14 -18 -5 0 -11 -8 -14 -18 -4 -10 -14 -27 -24 -38 -9 -11 -21
-27 -27 -36 -5 -9 -25 -37 -42 -62 -18 -26 -33 -51 -33 -57 0 -5 -5 -9 -10 -9
-6 0 -14 -8 -17 -18 -8 -19 -35 -60 -75 -113 -19 -24 -28 -48 -28 -72 l0 -37
790 0 790 0 0 255 c0 239 -1 255 -18 255 -12 0 -25 -15 -36 -42 -33 -76 -70
-153 -78 -163 -5 -5 -23 -29 -41 -52 -17 -23 -50 -55 -72 -72 -22 -17 -45 -35
-52 -41 -7 -5 -17 -10 -23 -10 -6 0 -21 -7 -33 -15 -46 -30 -175 -45 -379 -45
l-197 0 32 46 c18 25 37 53 42 62 6 9 25 38 43 64 17 26 32 52 32 57 0 5 4 11
8 13 4 1 34 44 67 93 32 50 62 92 67 93 4 2 8 8 8 13 0 5 16 32 35 59 19 27
35 54 35 59 0 5 4 11 8 13 5 2 35 44 67 93 33 50 63 91 67 93 4 2 8 8 8 13 0
5 15 31 33 57 17 26 37 55 42 64 6 9 25 37 43 62 17 26 32 51 32 57 0 5 4 9 8
9 5 0 17 16 28 35 10 19 22 35 26 35 5 0 8 4 8 9 0 6 15 31 33 57 17 25 37 53
42 62 6 9 25 38 43 64 17 26 32 52 32 58 0 5 4 10 8 10 16 0 52 78 52 114 l0
36 -780 0 -780 0 0 -231z"/>
</g>
</svg>
