<?xml version="1.0" encoding="UTF-8" standalone="no" ?>
<!DOCTYPE svg PUBLIC "-//W3C//DTD SVG 1.1//EN" "http://www.w3.org/Graphics/SVG/1.1/DTD/svg11.dtd">
<svg xmlns="http://www.w3.org/2000/svg" xmlns:xlink="http://www.w3.org/1999/xlink" version="1.1" width="128" height="20" viewBox="0 0 128 20" xml:space="preserve">
<desc>Created with Fabric.js 5.2.4</desc>
<defs>
</defs>
<g transform="matrix(0 0 0 0 0 0)" id="9ec6f8ac-df16-4879-bdb4-d99014aa3703"  >
</g>
<g transform="matrix(1 0 0 1 64 10)" id="4ccace7a-7bc4-4ab5-b140-eae51f503a64"  >
<rect style="stroke: none; stroke-width: 1; stroke-dasharray: none; stroke-linecap: butt; stroke-dashoffset: 0; stroke-linejoin: miter; stroke-miterlimit: 4; fill: rgb(255,255,255); fill-rule: nonzero; opacity: 1; visibility: hidden;" vector-effect="non-scaling-stroke"  x="-64" y="-10" rx="0" ry="0" width="128" height="20" />
</g>
<g transform="matrix(0.04 0 0 0.04 64 10)"  >
<g style="" vector-effect="non-scaling-stroke"   >
		<g transform="matrix(0.13 0 0 -0.13 -31.39 -4.73)"  >
<path style="stroke: none; stroke-width: 1; stroke-dasharray: none; stroke-linecap: butt; stroke-dashoffset: 0; stroke-linejoin: miter; stroke-miterlimit: 4; fill: rgb(0,0,0); fill-rule: nonzero; opacity: 1;" vector-effect="non-scaling-stroke"  transform=" translate(-9723.8, -5420)" d="M 1000 6823 C 975 6814 953 6804 950 6800 C 947 6796 916 6780 880 6765 C 844 6750 804 6727 791 6714 C 778 6701 762 6690 755 6690 C 748 6690 732 6680 718 6668 C 705 6655 678 6633 658 6617 C 617 6587 550 6519 550 6508 C 550 6505 538 6489 523 6473 C 507 6457 487 6433 476 6420 C 455 6394 400 6286 400 6271 C 400 6266 396 6260 391 6258 C 377 6253 342 6109 334 6027 C 325 5923 356 5747 391 5707 C 396 5700 410 5682 420 5665 C 431 5649 445 5627 452 5617 C 471 5590 541 5520 550 5520 C 554 5520 565 5511 575 5500 C 585 5489 599 5480 606 5480 C 613 5480 624 5472 629 5462 C 634 5452 664 5431 694 5415 C 725 5399 750 5383 750 5379 C 750 5375 779 5359 815 5344 C 851 5328 880 5313 880 5309 C 880 5305 922 5288 973 5269 C 1023 5251 1067 5233 1070 5229 C 1073 5225 1113 5209 1160 5194 C 1207 5179 1247 5164 1250 5160 C 1256 5153 1420 5100 1437 5100 C 1443 5100 1450 5096 1452 5091 C 1454 5087 1502 5068 1560 5050 C 1618 5032 1667 5014 1670 5010 C 1673 5007 1713 4991 1760 4975 C 1807 4960 1848 4943 1851 4938 C 1854 4934 1883 4920 1916 4909 C 1978 4887 2012 4871 2020 4860 C 2023 4857 2048 4843 2075 4830 C 2103 4817 2132 4801 2140 4793 C 2148 4785 2178 4765 2205 4747 C 2233 4730 2263 4705 2273 4693 C 2283 4681 2299 4668 2310 4665 C 2320 4662 2338 4645 2349 4627 C 2386 4570 2395 4557 2412 4539 C 2431 4518 2460 4429 2460 4389 C 2460 4374 2452 4339 2443 4310 C 2430 4268 2418 4253 2381 4227 C 2356 4210 2333 4193 2329 4188 C 2314 4166 2163 4140 2051 4140 C 1898 4140 1700 4169 1700 4191 C 1700 4195 1686 4201 1669 4205 C 1635 4213 1528 4258 1520 4269 C 1514 4277 1432 4330 1426 4330 C 1423 4330 1410 4340 1396 4353 C 1382 4365 1351 4391 1328 4410 C 1242 4482 1006 4727 948 4806 C 902 4868 898 4870 877 4844 C 867 4831 854 4820 848 4820 C 842 4820 818 4801 795 4778 C 718 4700 620 4610 613 4610 C 610 4610 588 4592 566 4570 C 467 4475 397 4410 391 4410 C 388 4410 366 4391 342 4369 C 301 4330 296 4310 325 4310 C 333 4310 349 4296 362 4280 C 374 4264 388 4250 393 4250 C 402 4250 463 4206 490 4181 C 498 4173 519 4161 536 4154 C 554 4147 574 4135 582 4127 C 589 4120 629 4099 670 4081 C 711 4063 747 4045 750 4041 C 753 4037 775 4026 800 4017 C 841 4002 910 4000 1526 4000 C 2109 4000 2214 4002 2258 4015 C 2287 4024 2310 4035 2310 4040 C 2310 4046 2315 4050 2321 4050 C 2354 4050 2465 4117 2523 4173 C 2539 4188 2554 4200 2557 4200 C 2567 4200 2635 4264 2652 4289 C 2661 4303 2682 4331 2699 4350 C 2716 4369 2738 4402 2747 4423 C 2756 4443 2767 4460 2770 4460 C 2774 4460 2790 4493 2806 4533 C 2821 4572 2838 4607 2841 4610 C 2845 4613 2856 4653 2866 4700 C 2891 4827 2875 5074 2839 5100 C 2835 5103 2822 5128 2810 5155 C 2798 5182 2783 5211 2775 5220 C 2768 5228 2743 5255 2720 5280 C 2697 5305 2666 5339 2651 5355 C 2622 5387 2582 5416 2538 5439 C 2522 5447 2510 5457 2510 5462 C 2510 5466 2484 5483 2453 5498 C 2421 5513 2392 5530 2388 5536 C 2384 5542 2350 5559 2313 5575 C 2276 5591 2243 5607 2240 5610 C 2233 5619 2098 5670 2082 5670 C 2076 5670 2070 5674 2070 5679 C 2070 5684 2031 5701 1983 5716 C 1934 5731 1893 5747 1890 5751 C 1887 5755 1836 5772 1775 5790 C 1715 5808 1663 5825 1660 5830 C 1657 5834 1615 5850 1565 5865 C 1516 5880 1473 5895 1470 5899 C 1467 5903 1422 5921 1370 5940 C 1318 5958 1273 5976 1270 5981 C 1267 5985 1238 6000 1205 6014 C 1173 6029 1143 6044 1140 6048 C 1137 6052 1109 6069 1076 6085 C 1044 6101 1015 6120 1013 6127 C 1010 6134 1002 6140 996 6140 C 982 6140 850 6258 850 6271 C 850 6276 841 6289 831 6299 C 792 6338 780 6434 804 6502 C 818 6540 886 6620 905 6620 C 911 6620 930 6633 947 6649 C 964 6664 1006 6686 1039 6696 C 1073 6706 1100 6717 1100 6722 C 1100 6726 1352 6730 1660 6730 C 2027 6730 2220 6727 2220 6720 C 2220 6715 2229 6710 2240 6710 C 2271 6710 2371 6669 2377 6654 C 2380 6646 2387 6640 2394 6640 C 2408 6639 2470 6582 2492 6548 C 2514 6514 2540 6442 2540 6413 C 2540 6400 2545 6390 2550 6390 C 2556 6390 2560 6357 2560 6310 L 2560 6230 L 2603 6230 C 2643 6230 2649 6233 2666 6265 C 2676 6285 2695 6308 2708 6316 C 2720 6324 2730 6336 2730 6342 C 2730 6354 2907 6530 2919 6530 C 2924 6530 2938 6540 2952 6553 C 2983 6580 3024 6606 3070 6627 C 3089 6635 3107 6646 3110 6651 C 3118 6663 3235 6700 3288 6707 C 3311 6710 3330 6717 3330 6721 C 3330 6726 3350 6730 3375 6730 C 3400 6730 3420 6726 3420 6720 C 3420 6715 3428 6710 3438 6710 C 3447 6710 3471 6695 3490 6678 L 3525 6646 L 3525 5420 L 3525 4194 L 3490 4162 C 3471 4145 3450 4130 3443 4130 C 3437 4130 3430 4124 3428 4118 C 3425 4109 3388 4104 3302 4102 L 3180 4098 L 3180 4049 L 3180 4000 L 4271 4000 L 5361 4000 L 5354 4023 C 5351 4035 5341 4057 5334 4072 C 5326 4087 5320 4106 5320 4114 C 5320 4122 5314 4135 5306 4143 C 5298 4151 5277 4195 5259 4241 C 5241 4287 5224 4327 5221 4330 C 5215 4335 5195 4381 5170 4448 C 5163 4465 5154 4480 5151 4480 C 5142 4480 5094 4629 5084 4685 C 5080 4707 5073 4728 5067 4731 C 5062 4735 5055 4801 5052 4879 L 5047 5020 L 5677 5020 L 6307 5020 L 6320 4975 C 6327 4950 6336 4930 6340 4930 C 6344 4930 6353 4915 6360 4898 C 6385 4831 6405 4785 6411 4780 C 6414 4777 6431 4737 6449 4691 C 6467 4645 6488 4601 6496 4593 C 6504 4585 6510 4573 6510 4567 C 6510 4554 6552 4448 6560 4440 C 6563 4437 6573 4416 6583 4393 C 6592 4369 6608 4331 6617 4308 C 6627 4284 6637 4263 6641 4260 C 6653 4250 6669 4189 6663 4172 C 6659 4163 6643 4143 6627 4128 C 6597 4101 6593 4100 6483 4100 L 6370 4100 L 6370 4050 L 6370 4000 L 7090 4000 L 7810 4000 L 7810 4049 L 7810 4097 L 7731 4103 C 7669 4107 7646 4113 7629 4129 C 7617 4140 7599 4152 7590 4155 C 7581 4158 7564 4178 7554 4200 C 7544 4222 7532 4240 7529 4240 C 7525 4240 7515 4261 7506 4288 C 7476 4370 7457 4410 7448 4410 C 7444 4410 7440 4416 7440 4422 C 7440 4440 7387 4574 7378 4581 C 7370 4586 7353 4628 7318 4725 C 7312 4742 7303 4757 7299 4760 C 7294 4763 7280 4796 7266 4833 C 7253 4869 7235 4907 7226 4915 C 7217 4924 7210 4937 7210 4944 C 7210 4959 7169 5062 7160 5070 C 7157 5073 7147 5094 7137 5118 C 7128 5141 7112 5179 7103 5203 C 7093 5226 7083 5247 7080 5250 C 7073 5255 7035 5351 7025 5388 C 7022 5400 7015 5410 7011 5410 C 7006 5410 6998 5422 6992 5438 C 6956 5535 6935 5586 6930 5590 C 6923 5596 6894 5666 6885 5697 C 6881 5710 6873 5726 6867 5732 C 6854 5746 6800 5878 6800 5897 C 6800 5903 6793 5916 6784 5925 C 6775 5933 6757 5971 6744 6007 C 6730 6044 6716 6077 6712 6080 C 6703 6086 6660 6191 6660 6207 C 6660 6213 6654 6225 6646 6233 C 6631 6248 6570 6396 6570 6418 C 6570 6424 6566 6430 6562 6430 C 6553 6430 6531 6477 6509 6543 C 6502 6563 6493 6580 6489 6580 C 6485 6580 6475 6599 6467 6623 C 6459 6646 6445 6682 6436 6703 L 6419 6741 L 7205 6738 C 7787 6736 7993 6732 7998 6723 C 8002 6717 8023 6709 8044 6705 C 8091 6696 8181 6663 8189 6653 C 8192 6648 8218 6634 8245 6621 C 8306 6591 8430 6468 8461 6406 C 8473 6380 8487 6360 8491 6360 C 8495 6360 8508 6323 8521 6278 C 8550 6171 8551 6037 8522 5931 C 8511 5890 8498 5854 8493 5851 C 8489 5848 8478 5831 8469 5815 C 8439 5758 8425 5738 8379 5692 C 8301 5613 8277 5595 8215 5565 C 8182 5550 8152 5533 8149 5528 C 8145 5522 8107 5509 8064 5498 C 8002 5482 7939 5477 7768 5473 L 7550 5468 L 7550 5409 C 7550 5352 7578 5270 7598 5270 C 7603 5270 7615 5253 7626 5233 C 7660 5171 7674 5148 7698 5122 C 7710 5108 7720 5092 7720 5085 C 7720 5079 7728 5065 7738 5054 C 7748 5044 7769 5013 7785 4985 C 7801 4958 7821 4927 7830 4917 C 7840 4907 7858 4879 7870 4855 C 7883 4830 7897 4810 7901 4810 C 7905 4810 7915 4798 7922 4783 C 7947 4735 7965 4706 7977 4695 C 7983 4690 8001 4663 8016 4635 C 8031 4608 8046 4583 8049 4580 C 8057 4573 8110 4492 8110 4486 C 8110 4483 8121 4469 8135 4454 C 8149 4439 8160 4422 8160 4415 C 8160 4408 8170 4392 8183 4378 C 8206 4352 8224 4323 8248 4278 C 8255 4262 8265 4250 8269 4250 C 8273 4250 8289 4227 8305 4199 C 8328 4157 8330 4144 8321 4124 C 8311 4102 8304 4100 8245 4100 L 8180 4100 L 8180 4050 L 8180 4000 L 10870 4000 L 13560 4000 L 13560 4126 L 13560 4252 L 13583 4236 C 13595 4227 13615 4215 13628 4210 C 13640 4205 13650 4197 13650 4192 C 13650 4187 13675 4170 13705 4155 C 13735 4139 13760 4123 13760 4119 C 13760 4116 13793 4098 13833 4080 C 13872 4062 13907 4045 13910 4041 C 13913 4037 13937 4026 13964 4017 C 14008 4002 14086 4000 14689 4000 C 15356 4000 15421 4003 15452 4033 C 15459 4040 15499 4061 15540 4079 C 15581 4097 15617 4115 15620 4120 C 15623 4124 15645 4138 15670 4151 C 15695 4164 15729 4187 15745 4203 C 15761 4218 15780 4230 15787 4230 C 15802 4230 16050 4470 16050 4485 C 16050 4490 16063 4508 16080 4523 C 16096 4539 16117 4567 16126 4586 C 16135 4605 16146 4620 16150 4620 C 16155 4620 16170 4645 16184 4675 C 16198 4706 16215 4737 16223 4744 C 16230 4752 16249 4796 16265 4841 C 16280 4887 16296 4927 16300 4930 C 16312 4938 16340 5059 16352 5158 C 16359 5208 16368 5250 16372 5250 C 16376 5250 16380 5322 16380 5410 C 16380 5498 16376 5570 16371 5570 C 16367 5570 16360 5600 16356 5638 C 16349 5711 16314 5871 16302 5880 C 16298 5883 16282 5925 16265 5974 C 16249 6023 16230 6068 16224 6075 C 16217 6081 16200 6110 16186 6138 C 16171 6167 16156 6190 16151 6190 C 16146 6190 16140 6198 16136 6208 C 16122 6251 16090 6293 16013 6375 C 15995 6393 15980 6413 15980 6418 C 15980 6424 15965 6440 15948 6454 C 15899 6493 15832 6552 15808 6578 C 15796 6590 15781 6600 15774 6600 C 15768 6600 15749 6613 15732 6628 C 15716 6643 15690 6662 15674 6670 C 15648 6684 15681 6685 16005 6688 C 16203 6689 16380 6688 16398 6685 C 16416 6682 16434 6671 16437 6662 C 16441 6653 16448 6642 16454 6638 C 16462 6633 16466 6507 16468 6250 L 16471 5869 L 16543 5799 C 16582 5761 16617 5730 16621 5730 C 16624 5730 16651 5705 16681 5675 C 16711 5645 16738 5620 16741 5620 C 16744 5620 16778 5591 16816 5555 C 16854 5519 16909 5468 16937 5442 C 16966 5416 17019 5367 17054 5333 C 17089 5298 17121 5270 17126 5270 C 17130 5270 17161 5243 17194 5211 C 17327 5083 17364 5049 17389 5034 C 17403 5025 17431 4998 17450 4974 C 17469 4951 17493 4928 17502 4925 C 17511 4922 17543 4895 17572 4865 C 17601 4835 17628 4810 17632 4810 C 17636 4810 17668 4782 17704 4748 C 17740 4713 17794 4663 17825 4635 C 17855 4608 17910 4557 17945 4522 C 17981 4488 18013 4460 18018 4460 C 18023 4460 18040 4445 18056 4428 C 18087 4395 18255 4239 18270 4230 C 18285 4221 18443 4076 18479 4037 L 18515 4000 L 18653 4000 L 18790 4000 L 18790 5299 C 18790 6192 18793 6607 18801 6628 C 18812 6660 18874 6710 18903 6710 C 18912 6710 18920 6715 18920 6720 C 18920 6726 18964 6730 19031 6730 L 19141 6730 L 19138 6778 L 19135 6825 L 18733 6828 L 18330 6830 L 18330 6780 L 18330 6730 L 18440 6730 C 18501 6730 18550 6726 18550 6721 C 18550 6716 18563 6709 18579 6705 C 18612 6698 18644 6667 18659 6627 C 18667 6608 18670 6328 18670 5754 L 18670 4909 L 18610 4967 C 18577 4999 18525 5048 18494 5075 C 18464 5103 18410 5153 18374 5188 C 18339 5222 18306 5250 18301 5250 C 18296 5250 18279 5265 18263 5283 C 18247 5300 18219 5328 18200 5343 C 18145 5388 18022 5501 17978 5548 C 17955 5571 17933 5590 17928 5590 C 17923 5590 17893 5617 17861 5650 C 17829 5683 17799 5710 17794 5710 C 17790 5710 17767 5729 17744 5753 C 17722 5776 17668 5827 17625 5865 C 17583 5904 17518 5963 17482 5998 C 17446 6032 17414 6060 17411 6060 C 17408 6060 17376 6088 17340 6121 C 17304 6155 17242 6212 17201 6249 C 17161 6285 17109 6334 17087 6358 C 17065 6381 17043 6400 17038 6400 C 17034 6400 17001 6428 16965 6463 C 16929 6497 16875 6548 16844 6575 C 16813 6603 16759 6653 16723 6688 C 16688 6722 16655 6750 16651 6750 C 16647 6750 16626 6768 16604 6790 L 16565 6830 L 15301 6830 C 14045 6830 13984 6829 13960 6799 C 13957 6795 13921 6778 13880 6761 C 13839 6743 13803 6725 13800 6721 C 13797 6716 13769 6701 13738 6686 C 13706 6671 13680 6655 13680 6651 C 13680 6647 13662 6633 13639 6621 C 13594 6595 13577 6581 13445 6455 C 13393 6406 13350 6360 13350 6353 C 13350 6346 13341 6336 13330 6330 C 13319 6324 13299 6299 13284 6275 C 13270 6250 13255 6230 13252 6230 C 13248 6230 13232 6204 13215 6172 C 13199 6141 13183 6113 13179 6110 C 13169 6103 13120 5990 13120 5974 C 13120 5967 13114 5955 13106 5947 C 13091 5932 13040 5760 13040 5723 C 13040 5711 13036 5700 13030 5698 C 13025 5697 13015 5629 13008 5548 C 12999 5431 12999 5371 13008 5263 C 13015 5187 13025 5124 13030 5122 C 13036 5120 13040 5110 13040 5099 C 13040 5074 13090 4886 13098 4880 C 13102 4877 13120 4837 13139 4790 C 13158 4743 13180 4699 13187 4691 C 13195 4684 13210 4658 13221 4635 C 13232 4611 13248 4589 13256 4586 C 13264 4583 13270 4574 13270 4567 C 13270 4559 13277 4546 13286 4539 C 13299 4528 13301 4514 13296 4464 C 13289 4400 13263 4310 13251 4310 C 13247 4310 13234 4292 13221 4270 C 13209 4248 13185 4223 13169 4215 C 13153 4206 13140 4195 13140 4189 C 13140 4178 13039 4130 13016 4130 C 13008 4130 13000 4124 12998 4118 C 12994 4108 12862 4104 12392 4102 L 11790 4099 L 11779 4124 C 11769 4145 11771 4157 11790 4197 C 11802 4223 11816 4255 11821 4267 C 11826 4280 11834 4290 11839 4290 C 11844 4290 11856 4310 11865 4334 C 11875 4359 11890 4387 11899 4397 C 11908 4407 11929 4444 11945 4479 C 11962 4514 11980 4548 11986 4554 C 11991 4560 12009 4592 12024 4625 C 12040 4658 12057 4688 12063 4692 C 12068 4695 12083 4721 12095 4750 C 12107 4778 12123 4809 12131 4818 C 12139 4827 12159 4862 12175 4895 C 12192 4928 12211 4961 12218 4968 C 12224 4976 12240 5004 12251 5031 C 12263 5058 12276 5080 12280 5080 C 12284 5080 12299 5106 12313 5138 C 12327 5170 12344 5203 12351 5211 C 12359 5219 12378 5252 12394 5285 C 12410 5318 12427 5347 12430 5350 C 12434 5353 12452 5387 12471 5425 C 12489 5464 12508 5498 12513 5501 C 12517 5504 12533 5531 12546 5561 C 12560 5590 12575 5617 12579 5620 C 12583 5623 12602 5657 12621 5695 C 12639 5734 12658 5767 12661 5770 C 12665 5773 12681 5800 12696 5830 C 12711 5860 12726 5887 12730 5890 C 12734 5893 12750 5922 12765 5955 C 12781 5988 12798 6018 12802 6021 C 12807 6024 12824 6055 12841 6091 C 12858 6126 12875 6157 12879 6160 C 12883 6163 12900 6192 12916 6225 C 12932 6258 12951 6291 12959 6299 C 12966 6307 12983 6340 12997 6372 C 13011 6404 13026 6430 13030 6430 C 13033 6430 13049 6457 13064 6490 C 13079 6523 13096 6550 13101 6550 C 13106 6550 13110 6556 13110 6563 C 13110 6595 13172 6668 13218 6691 C 13244 6704 13267 6718 13270 6722 C 13273 6726 13299 6732 13328 6736 L 13380 6743 L 13380 6791 L 13380 6840 L 12070 6840 L 10760 6840 L 10760 6806 C 10760 6787 10757 6765 10754 6756 C 10748 6741 10812 6740 11426 6740 C 11800 6740 12115 6737 12126 6734 C 12156 6726 12169 6692 12156 6658 C 12150 6643 12142 6630 12138 6630 C 12133 6630 12116 6600 12098 6563 C 12081 6525 12064 6493 12060 6490 C 12056 6487 12040 6460 12025 6430 C 12010 6400 11994 6373 11991 6370 C 11987 6367 11969 6334 11950 6295 C 11932 6257 11911 6221 11905 6215 C 11899 6210 11885 6185 11875 6160 C 11865 6135 11851 6110 11844 6105 C 11838 6099 11818 6064 11800 6026 C 11783 5988 11763 5951 11757 5945 C 11750 5939 11734 5909 11720 5879 C 11706 5849 11690 5821 11683 5815 C 11676 5810 11662 5784 11651 5758 C 11640 5731 11627 5710 11623 5710 C 11618 5710 11602 5680 11586 5644 C 11570 5608 11552 5573 11545 5566 C 11538 5559 11520 5527 11505 5495 C 11489 5463 11470 5429 11462 5419 C 11454 5409 11437 5378 11425 5350 C 11413 5321 11398 5295 11392 5291 C 11386 5288 11372 5264 11362 5239 C 11351 5214 11336 5187 11329 5179 C 11321 5171 11302 5136 11285 5101 C 11269 5066 11250 5032 11244 5026 C 11239 5020 11221 4988 11205 4955 C 11190 4922 11172 4891 11165 4885 C 11159 4880 11145 4855 11135 4830 C 11125 4805 11111 4781 11105 4775 C 11099 4770 11078 4734 11059 4695 C 11041 4657 11020 4619 11013 4612 C 11006 4604 10990 4576 10979 4549 C 10967 4522 10954 4500 10950 4500 C 10946 4500 10931 4474 10917 4442 C 10903 4410 10886 4377 10879 4369 C 10871 4361 10852 4328 10836 4295 C 10820 4262 10804 4233 10800 4230 C 10797 4227 10784 4210 10771 4193 C 10759 4175 10732 4153 10712 4143 C 10692 4134 10673 4123 10670 4119 C 10667 4115 10626 4106 10578 4099 C 10514 4090 10480 4090 10448 4098 C 10392 4112 10335 4165 10321 4216 C 10314 4243 10310 4524 10310 5098 C 10310 5903 10306 6030 10281 6030 C 10278 6030 10269 6043 10262 6058 C 10247 6093 10123 6217 9975 6344 C 9943 6372 9900 6412 9881 6433 C 9862 6453 9843 6470 9838 6470 C 9833 6470 9799 6499 9762 6535 C 9637 6656 9615 6676 9588 6694 C 9572 6704 9560 6716 9560 6721 C 9560 6726 9793 6730 10100 6730 L 10640 6730 L 10640 6780 L 10640 6830 L 9895 6830 L 9150 6830 L 9150 6780 L 9150 6730 L 9265 6730 C 9335 6730 9380 6726 9380 6720 C 9380 6715 9387 6710 9395 6710 C 9423 6710 9473 6671 9487 6639 C 9498 6614 9500 6387 9500 5414 C 9500 4121 9502 4170 9447 4141 C 9432 4133 9420 4123 9420 4118 C 9420 4108 9383 4107 9378 4118 C 9373 4129 9312 4170 9300 4170 C 9295 4170 9290 4176 9290 4183 C 9290 4189 9278 4209 9262 4225 C 9235 4256 9223 4274 9186 4343 C 9175 4363 9163 4380 9158 4380 C 9154 4380 9141 4398 9131 4419 C 9120 4440 9105 4464 9098 4471 C 9080 4490 9035 4561 9027 4583 C 9024 4592 9017 4600 9012 4600 C 9007 4600 8990 4626 8974 4657 C 8958 4688 8937 4722 8928 4731 C 8919 4741 8904 4763 8895 4779 C 8887 4796 8876 4810 8872 4810 C 8868 4810 8854 4827 8840 4848 C 8811 4892 8759 4944 8708 4978 C 8687 4991 8670 5006 8670 5010 C 8670 5014 8637 5032 8598 5050 C 8558 5068 8523 5085 8520 5089 C 8517 5093 8470 5109 8415 5125 C 8360 5141 8313 5157 8310 5161 C 8307 5164 8260 5180 8205 5196 C 8150 5211 8103 5227 8100 5231 C 8097 5234 8043 5252 7980 5270 C 7917 5288 7863 5306 7860 5310 C 7857 5314 7822 5327 7781 5338 C 7741 5350 7705 5362 7702 5365 C 7698 5368 7904 5370 8159 5368 C 8524 5366 8624 5368 8627 5378 C 8630 5384 8641 5390 8653 5390 C 8698 5390 8843 5438 8860 5459 C 8863 5462 8886 5475 8911 5487 C 8956 5510 8992 5537 9051 5595 C 9112 5655 9130 5675 9130 5686 C 9130 5692 9141 5708 9154 5721 C 9179 5747 9230 5865 9230 5898 C 9230 5909 9236 5920 9243 5923 C 9258 5928 9261 6277 9245 6288 C 9240 6292 9224 6328 9210 6369 C 9197 6410 9175 6455 9163 6468 C 9150 6482 9140 6497 9140 6502 C 9140 6510 9104 6553 9054 6604 C 9011 6649 8946 6700 8934 6700 C 8927 6700 8917 6706 8913 6713 C 8904 6729 8806 6775 8761 6785 C 8744 6789 8730 6795 8730 6799 C 8730 6804 8700 6813 8663 6821 C 8606 6832 7976 6835 4820 6837 C 1404 6838 1041 6837 1000 6823 z M 5490 6712 C 5504 6699 5523 6682 5533 6673 C 5550 6657 5555 6630 5551 6580 C 5549 6552 5530 6498 5519 6490 C 5511 6484 5460 6357 5460 6342 C 5460 6335 5456 6330 5451 6330 C 5446 6330 5428 6293 5410 6248 C 5393 6203 5376 6163 5372 6160 C 5365 6155 5354 6128 5323 6045 C 5315 6023 5305 6003 5301 6000 C 5292 5994 5230 5838 5230 5822 C 5230 5815 5226 5810 5221 5810 C 5216 5810 5199 5777 5184 5738 C 5169 5698 5153 5663 5149 5660 C 5145 5657 5135 5637 5127 5615 C 5118 5593 5104 5555 5095 5530 C 5086 5505 5075 5483 5071 5480 C 5067 5477 5051 5442 5036 5403 C 5021 5363 5004 5330 4999 5330 C 4994 5330 4990 5325 4990 5318 C 4990 5302 4939 5176 4930 5170 C 4923 5165 4887 5072 4869 5013 C 4863 4995 4855 4980 4851 4980 C 4846 4980 4830 4946 4815 4905 C 4800 4864 4785 4830 4781 4830 C 4777 4830 4769 4815 4763 4798 C 4739 4727 4710 4656 4702 4651 C 4694 4645 4652 4541 4643 4503 C 4640 4490 4634 4480 4630 4480 C 4625 4480 4608 4443 4590 4398 C 4573 4353 4556 4313 4552 4310 C 4543 4304 4500 4199 4500 4184 C 4500 4178 4491 4163 4481 4151 C 4470 4138 4459 4123 4457 4117 C 4453 4105 4454 4105 4390 4159 L 4355 4188 L 4350 5085 C 4347 5704 4342 5983 4334 5988 C 4328 5992 4316 6015 4306 6039 C 4295 6067 4258 6114 4202 6171 C 4154 6220 4112 6260 4109 6260 C 4106 6260 4072 6289 4034 6325 C 3954 6401 3900 6450 3801 6540 C 3761 6576 3699 6633 3664 6667 C 3628 6701 3594 6731 3587 6734 C 3580 6736 4000 6738 4520 6737 L 5465 6735 L 5490 6712 z M 6238 6725 C 6242 6719 6257 6709 6273 6702 C 6288 6696 6308 6674 6318 6653 C 6327 6632 6338 6614 6343 6612 C 6354 6607 6352 6530 6340 6530 C 6335 6530 6327 6515 6321 6498 C 6302 6433 6265 6345 6254 6332 C 6247 6326 6239 6310 6235 6297 C 6226 6265 6197 6196 6189 6190 C 6186 6187 6169 6147 6151 6101 C 6133 6055 6112 6011 6104 6003 C 6096 5995 6090 5983 6090 5977 C 6090 5962 6047 5856 6038 5850 C 6010 5829 6007 5655 6034 5627 C 6045 5615 6057 5587 6087 5500 C 6096 5475 6107 5452 6112 5449 C 6119 5444 6137 5403 6172 5305 C 6178 5289 6187 5273 6191 5270 C 6198 5265 6250 5137 6250 5125 C 6250 5118 5277 5119 5241 5126 C 5211 5132 5196 5144 5150 5199 C 5127 5227 5122 5310 5143 5332 C 5156 5347 5200 5449 5200 5467 C 5200 5473 5206 5485 5214 5493 C 5229 5508 5290 5656 5290 5678 C 5290 5684 5294 5690 5299 5690 C 5304 5690 5321 5723 5336 5763 C 5351 5802 5366 5837 5370 5840 C 5377 5845 5422 5954 5435 5998 C 5438 6010 5445 6020 5449 6020 C 5454 6020 5470 6054 5485 6095 C 5500 6136 5516 6170 5521 6170 C 5526 6170 5530 6175 5530 6182 C 5530 6197 5581 6324 5589 6330 C 5598 6336 5660 6493 5660 6508 C 5660 6515 5664 6520 5670 6520 C 5685 6520 5702 6598 5694 6633 C 5691 6650 5670 6681 5646 6702 L 5605 6741 L 5918 6738 C 6116 6736 6233 6731 6238 6725 z M 14280 6651 C 14280 6647 14301 6640 14327 6636 C 14384 6628 14543 6581 14550 6570 C 14553 6566 14584 6550 14620 6535 C 14656 6520 14687 6505 14690 6501 C 14693 6497 14721 6479 14754 6461 C 14786 6443 14822 6420 14833 6410 C 14844 6399 14867 6384 14884 6376 C 14901 6368 14921 6352 14928 6341 C 14935 6329 14946 6320 14954 6320 C 14962 6320 14980 6307 14993 6290 C 15007 6274 15022 6260 15026 6260 C 15038 6260 15230 6064 15230 6052 C 15230 6046 15244 6032 15260 6020 C 15277 6008 15290 5993 15290 5987 C 15290 5980 15306 5960 15325 5941 C 15344 5923 15360 5904 15360 5899 C 15360 5889 15395 5836 15419 5811 C 15427 5802 15439 5781 15446 5764 C 15453 5746 15465 5726 15473 5718 C 15488 5703 15550 5576 15550 5560 C 15550 5554 15554 5550 15559 5550 C 15564 5550 15570 5542 15573 5533 C 15588 5483 15624 5394 15630 5390 C 15639 5384 15690 5186 15690 5159 C 15690 5148 15694 5140 15698 5140 C 15712 5140 15731 4992 15737 4840 C 15742 4693 15722 4510 15700 4502 C 15694 4500 15690 4492 15690 4484 C 15690 4461 15642 4360 15631 4360 C 15625 4360 15620 4354 15620 4346 C 15620 4323 15505 4225 15461 4210 C 15438 4203 15420 4194 15420 4190 C 15420 4177 15316 4160 15234 4160 C 15143 4160 15008 4177 15000 4190 C 14997 4194 14964 4207 14925 4218 C 14847 4241 14788 4262 14780 4270 C 14777 4273 14748 4289 14715 4305 C 14682 4322 14653 4338 14650 4341 C 14647 4345 14620 4362 14590 4380 C 14560 4398 14531 4418 14527 4426 C 14523 4434 14514 4440 14509 4440 C 14491 4440 14391 4520 14336 4578 C 14314 4601 14292 4620 14286 4620 C 14280 4621 14259 4640 14240 4663 C 14221 4686 14186 4724 14163 4747 C 14139 4771 14120 4794 14120 4798 C 14120 4803 14111 4815 14100 4825 C 14089 4835 14080 4846 14080 4850 C 14080 4854 14064 4874 14045 4894 C 14026 4915 14010 4937 14010 4943 C 14010 4950 13998 4966 13985 4979 C 13971 4992 13960 5008 13960 5015 C 13960 5021 13950 5038 13938 5052 C 13925 5065 13902 5103 13886 5136 C 13870 5168 13853 5197 13849 5200 C 13840 5206 13780 5361 13780 5378 C 13780 5384 13776 5390 13771 5390 C 13763 5390 13728 5495 13715 5558 C 13711 5575 13705 5590 13701 5590 C 13691 5590 13663 5756 13649 5906 C 13641 5995 13641 6056 13649 6136 C 13660 6246 13684 6360 13699 6370 C 13704 6373 13711 6386 13715 6400 C 13722 6424 13753 6473 13775 6496 C 13780 6502 13799 6522 13816 6541 C 13851 6582 13913 6614 13988 6631 C 14016 6638 14040 6647 14040 6652 C 14040 6656 14094 6660 14160 6660 C 14226 6660 14280 6656 14280 6651 z" stroke-linecap="round" />
</g>
		<g transform="matrix(0.13 0 0 -0.13 669.22 -1.27)"  >
<path style="stroke: none; stroke-width: 1; stroke-dasharray: none; stroke-linecap: butt; stroke-dashoffset: 0; stroke-linejoin: miter; stroke-miterlimit: 4; fill: rgb(0,0,0); fill-rule: nonzero; opacity: 1;" vector-effect="non-scaling-stroke"  transform=" translate(-14752.67, -5420)" d="M 14750 5760 C 14750 5738 14746 5720 14741 5720 C 14736 5720 14728 5705 14724 5688 C 14721 5670 14710 5641 14701 5625 C 14684 5593 14585 5490 14572 5490 C 14567 5490 14555 5482 14544 5472 C 14519 5449 14454 5430 14399 5430 C 14367 5430 14359 5427 14370 5420 C 14378 5415 14401 5410 14421 5410 C 14457 5410 14520 5393 14530 5380 C 14533 5377 14553 5363 14575 5350 C 14651 5304 14730 5197 14730 5139 C 14730 5128 14735 5120 14740 5120 C 14746 5120 14750 5102 14750 5080 C 14750 5058 14755 5040 14760 5040 C 14766 5040 14770 5057 14770 5078 C 14770 5123 14786 5185 14803 5202 C 14810 5209 14821 5227 14829 5241 C 14849 5281 14905 5336 14945 5354 C 14964 5363 14980 5375 14980 5379 C 14980 5390 15060 5410 15104 5410 C 15124 5410 15140 5415 15140 5420 C 15140 5426 15126 5430 15109 5430 C 15073 5430 14990 5450 14990 5459 C 14990 5462 14966 5478 14937 5494 C 14890 5519 14820 5594 14820 5619 C 14820 5624 14815 5630 14810 5632 C 14794 5637 14771 5710 14770 5758 C 14770 5781 14766 5800 14760 5800 C 14755 5800 14750 5782 14750 5760 z" stroke-linecap="round" />
</g>
</g>
</g>
</svg>